HIERARCHY
ROOT Hips
{
  OFFSET 54.7686 95.6889 28.8761
  CHANNELS 6 Xposition Yposition Zposition Zrotation Xrotation Yrotation
  JOINT spine
  {
    OFFSET 0 7.96568 0.458067
    CHANNELS 3 Zrotation Xrotation Yrotation
    JOINT spine1
    {
      OFFSET 0 10.2431 0
      CHANNELS 3 Zrotation Xrotation Yrotation
      JOINT spine2
      {
        OFFSET 0 9.81475 0
        CHANNELS 3 Zrotation Xrotation Yrotation
        JOINT Neck
        {
          OFFSET 0 25.1986 1.20138
          CHANNELS 3 Zrotation Xrotation Yrotation
          JOINT Head
          {
            OFFSET 0 7.61315 0
            CHANNELS 3 Zrotation Xrotation Yrotation
            End Site
            {
              OFFSET 0 18.4281 -6.07733
            }
          }
        }
        JOINT RightShoulder
        {
          OFFSET -4.1327 10.5992 -0.575451
          CHANNELS 3 Zrotation Xrotation Yrotation
          JOINT RightArm
          {
            OFFSET 0 13.9018 0
            CHANNELS 3 Zrotation Xrotation Yrotation
            JOINT RightArmRoll
            {
              OFFSET 0 7.01788 0
              CHANNELS 3 Zrotation Xrotation Yrotation
              JOINT RightForeArm
              {
                OFFSET 0 20.4406 0
                CHANNELS 3 Zrotation Xrotation Yrotation
                JOINT RightForeArmRoll
                {
                  OFFSET 0 7.87515 0
                  CHANNELS 3 Zrotation Xrotation Yrotation
                  JOINT RightHand
                  {
                    OFFSET 0 15.8037 0
                    CHANNELS 3 Zrotation Xrotation Yrotation
                    End Site
                    {
                      OFFSET 0 0 0
                    }
                  }
                }
              }
            }
          }
        }
        JOINT LeftShoulder
        {
          OFFSET 4.1327 10.5992 -0.575451
          CHANNELS 3 Zrotation Xrotation Yrotation
          JOINT LeftArm
          {
            OFFSET 0 13.9018 0
            CHANNELS 3 Zrotation Xrotation Yrotation
            JOINT LeftArmRoll
            {
              OFFSET 0 7.01788 0
              CHANNELS 3 Zrotation Xrotation Yrotation
              JOINT LeftForeArm
              {
                OFFSET 0 20.4406 0
                CHANNELS 3 Zrotation Xrotation Yrotation
                JOINT LeftForeArmRoll
                {
                  OFFSET 0 7.87515 0
                  CHANNELS 3 Zrotation Xrotation Yrotation
                  JOINT LeftHand
                  {
                    OFFSET 0 15.8037 0
                    CHANNELS 3 Zrotation Xrotation Yrotation
                    End Site
                    {
                      OFFSET 0 0 0
                    }
                  }
                }
              }
            }
          }
        }
      }
    }
  }
  JOINT RightUpLeg
  {
    OFFSET -7.06048 -1.2947 -1.0861
    CHANNELS 3 Zrotation Xrotation Yrotation
    JOINT RightUpLegRoll
    {
      OFFSET 0 18.5308 0
      CHANNELS 3 Zrotation Xrotation Yrotation
      JOINT RightLeg
      {
        OFFSET 0 -22.9476 0
        CHANNELS 3 Zrotation Xrotation Yrotation
        JOINT RightLegRoll
        {
          OFFSET 0 23.0226 0
          CHANNELS 3 Zrotation Xrotation Yrotation
          JOINT RightFoot
          {
            OFFSET 0 19.1625 0
            CHANNELS 3 Zrotation Xrotation Yrotation
            JOINT RightToeBase
            {
              OFFSET 0 16.0188 0
              CHANNELS 3 Zrotation Xrotation Yrotation
              End Site
              {
                OFFSET 0.00678979 7.75781 -0.894207
              }
            }
          }
        }
      }
    }
  }
  JOINT LeftUpLeg
  {
    OFFSET 7.06048 -1.2947 -1.0861
    CHANNELS 3 Zrotation Xrotation Yrotation
    JOINT LeftUpLegRoll
    {
      OFFSET 0 18.5309 0
      CHANNELS 3 Zrotation Xrotation Yrotation
      JOINT LeftLeg
      {
        OFFSET 0 22.9475 0
        CHANNELS 3 Zrotation Xrotation Yrotation
        JOINT LeftLegRoll
        {
          OFFSET 0 23.2355 0
          CHANNELS 3 Zrotation Xrotation Yrotation
          JOINT LeftFoot
          {
            OFFSET 0 18.9496 0
            CHANNELS 3 Zrotation Xrotation Yrotation
            JOINT LeftToeBase
            {
              OFFSET 0 16.0188 0
              CHANNELS 3 Zrotation Xrotation Yrotation
              End Site
              {
                OFFSET -0.0304289 7.75781 -0.894207
              }
            }
          }
        }
      }
    }
  }
}
MOTION
Frames: 11
Frame Time: 0.00208333
53.1608 78.2912 2.9395 -0.337327 27.5527 6.79414 -0.327702 0.748497 -0.313334 -0.650391 5.50138 -0.580335 -0.644658 7.14637 -0.570197 1.5287 -10.171 -1.59448 -3.70407 -2.05858 -1.9662 67.4775 -5.07576 -3.67403 113.595 36.3453 -16.2399 -9.82194e-006 2.61409e-006 -4.12326e-006 18.5707 32.6406 -6.93225 -2.09709e-006 -1.88005e-006 -3.00612 8.02889 -4.95086 0.697449 -59.9443 -1.49735 1.05388 -119.103 33.2015 17.5287 -3.4381e-006 3.55406e-006 -9.77131e-007 -17.8993 32.1676 6.22207 6.30897e-006 1.91131e-006 3.0048 -8.02888 -4.95085 -0.697448 131.718 75.0346 41.5959 180 -1.52585e-005 179.62 178.367 59.6437 178.101 -4.11128e-006 -4.01492e-006 0.360578 -14.1727 71.0467 21.8271 8.13657 25.2339 -3.48484 -170.093 78.7792 -6.09359 4.43636e-006 -5.0348e-005 -0.588785 -1.32381 -58.8242 1.25276 -3.98429e-006 -1.802e-007 -0.657498 15.8948 70.8434 -21.8027 -8.13649 25.2327 3.47296 
53.1828 78.452 3.05451 -0.337246 27.4234 6.77835 -0.325949 0.733882 -0.30993 -0.647308 5.47213 -0.573971 -0.64164 7.11712 -0.563873 1.63006 -10.2168 -1.58626 -3.79352 -1.97761 -1.96048 67.5113 -5.08136 -3.67895 113.759 36.5389 -15.9529 -9.82194e-006 2.61409e-006 -4.12326e-006 18.3376 31.7985 -6.68085 -2.09709e-006 -1.88005e-006 -3.00612 8.02889 -4.95086 0.697449 -60.0538 -1.4693 1.04844 -119.183 33.3707 17.2329 -3.4381e-006 3.55406e-006 -9.77131e-007 -17.6602 31.3479 5.96983 6.30897e-006 1.91131e-006 3.0048 -8.02888 -4.95085 -0.697448 132.861 74.7221 40.4657 180 -1.52584e-005 179.615 178.233 59.3531 178.196 -4.11128e-006 -4.01492e-006 0.359052 -14.2601 71.0597 21.8452 8.13657 25.2339 -3.48485 -170.309 78.3534 -5.85116 4.43636e-006 -5.0348e-005 -0.589993 -1.36057 -58.5341 1.22068 -3.98429e-006 -1.802e-007 -0.6535 15.9416 70.8529 -21.8146 -8.13649 25.2327 3.47296 
53.1814 78.6279 3.19152 -0.336869 27.2932 6.76325 -0.324235 0.719237 -0.306578 -0.644457 5.44281 -0.567707 -0.638854 7.08781 -0.557646 1.73394 -10.2642 -1.57889 -3.88262 -1.89502 -1.95534 67.5438 -5.0858 -3.68317 113.923 36.7286 -15.6605 -9.82194e-006 2.61409e-006 -4.12326e-006 18.0928 30.9612 -6.42954 -2.09709e-006 -1.88005e-006 -3.00612 8.02889 -4.95086 0.697449 -60.1643 -1.44425 1.04503 -119.262 33.5434 16.9428 -3.4381e-006 3.55406e-006 -9.77131e-007 -17.418 30.5208 5.71856 6.30897e-006 1.91131e-006 3.0048 -8.02888 -4.95085 -0.697448 133.951 74.3999 39.3928 180 -1.52584e-005 179.611 178.094 59.0591 178.294 -4.11128e-006 -4.01492e-006 0.357577 -14.3478 71.0696 21.8608 8.13658 25.2339 -3.48485 -170.514 77.9258 -5.62012 4.43636e-006 -5.0348e-005 -0.591263 -1.39626 -58.2413 1.18941 -3.98429e-006 -1.802e-007 -0.649515 15.9869 70.8606 -21.8248 -8.13649 25.2327 3.47296 
53.1798 78.8039 3.31869 -0.336261 27.1621 6.74879 -0.322562 0.704541 -0.303274 -0.641806 5.4134 -0.561524 -0.636267 7.05839 -0.551495 1.83955 -10.3127 -1.57228 -3.97071 -1.81074 -1.95063 67.5748 -5.08901 -3.68665 114.087 36.9141 -15.3632 -9.82194e-006 2.61409e-006 -4.12326e-006 17.8384 30.1295 -6.17952 -2.09709e-006 -1.88005e-006 -3.00612 8.02889 -4.95086 0.697449 -60.2757 -1.42175 1.04334 -119.34 33.719 16.6574 -3.4381e-006 3.55406e-006 -9.77131e-007 -17.1731 29.6883 5.46926 6.30897e-006 1.91131e-006 3.0048 -8.02888 -4.95085 -0.697448 134.992 74.0694 38.372 180 -1.52584e-005 179.606 177.952 58.7623 178.392 -4.11128e-006 -4.01492e-006 0.356129 -14.4356 71.0768 21.8743 8.13658 25.234 -3.48485 -170.708 77.4967 -5.40004 4.43635e-006 -5.0348e-005 -0.592585 -1.43085 -57.9462 1.159 -3.98429e-006 -1.802e-007 -0.645549 16.031 70.8666 -21.8336 -8.13649 25.2327 3.47296 
53.1857 78.9726 3.44929 -0.335488 27.0301 6.73493 -0.320933 0.689771 -0.30001 -0.639323 5.38384 -0.555401 -0.633848 7.02883 -0.545403 1.94612 -10.3618 -1.56631 -4.05711 -1.72476 -1.94622 67.6046 -5.09093 -3.68937 114.251 37.095 -15.0617 -9.82194e-006 2.61409e-006 -4.12326e-006 17.5765 29.3042 -5.93193 -2.09709e-006 -1.88005e-006 -3.00612 8.02889 -4.95086 0.697449 -60.3878 -1.40139 1.04309 -119.417 33.8968 16.3755 -3.4381e-006 3.55406e-006 -9.77131e-007 -16.9256 28.8526 5.2229 6.30897e-006 1.91131e-006 3.0048 -8.02888 -4.95085 -0.697448 135.987 73.7321 37.3984 180 -1.52584e-005 179.602 177.809 58.4634 178.491 -4.11128e-006 -4.01492e-006 0.354687 -14.5231 71.0819 21.8863 8.13658 25.234 -3.48486 -170.891 77.0665 -5.19051 4.43636e-006 -5.0348e-005 -0.593951 -1.46429 -57.6497 1.12947 -3.98429e-006 -1.802e-007 -0.641612 16.0741 70.8714 -21.8413 -8.13649 25.2327 3.47296 
53.2067 79.1374 3.5699 -0.334618 26.8975 6.72161 -0.319348 0.674906 -0.296783 -0.636977 5.35408 -0.549319 -0.631566 6.99908 -0.539349 2.05288 -10.4108 -1.5609 -4.14116 -1.63703 -1.94197 67.6328 -5.0915 -3.6913 114.413 37.271 -14.7565 -9.82194e-006 2.61409e-006 -4.12326e-006 17.3092 28.4864 -5.68786 -2.09709e-006 -1.88005e-006 -3.00612 8.02889 -4.95086 0.697449 -60.5003 -1.38274 1.044 -119.493 34.076 16.0963 -3.4381e-006 3.55406e-006 -9.77131e-007 -16.6756 28.0157 4.98036 6.30897e-006 1.91131e-006 3.0048 -8.02888 -4.95085 -0.697448 136.942 73.3891 36.467 180 -1.52584e-005 179.597 177.667 58.163 178.588 -4.11128e-006 -4.01492e-006 0.353229 -14.6099 71.0856 21.897 8.13658 25.234 -3.48486 -171.065 76.6355 -4.99114 4.43636e-006 -5.0348e-005 -0.595349 -1.49657 -57.352 1.10083 -3.98429e-006 -1.802e-007 -0.637711 16.1166 70.8751 -21.848 -8.13649 25.2327 3.47296 
53.2089 79.3082 3.70399 -0.333717 26.7643 6.70877 -0.317811 0.659924 -0.293585 -0.634737 5.3241 -0.543259 -0.62939 6.9691 -0.533316 2.15904 -10.4592 -1.55593 -4.22219 -1.54751 -1.93775 67.6597 -5.09067 -3.69241 114.573 37.4418 -14.4483 -9.82194e-006 2.61409e-006 -4.12326e-006 17.0382 27.677 -5.44837 -2.09709e-006 -1.88005e-006 -3.00612 8.02889 -4.95086 0.697449 -60.6131 -1.36537 1.04577 -119.568 34.2559 15.8186 -3.4381e-006 3.55406e-006 -9.77131e-007 -16.4232 27.18 4.74247 6.30897e-006 1.91131e-006 3.0048 -8.02888 -4.95085 -0.697448 137.86 73.0417 35.5728 180 -1.52584e-005 179.593 177.527 57.8619 178.684 -4.11128e-006 -4.01492e-006 0.351735 -14.6957 71.0883 21.9068 8.13658 25.2341 -3.48487 -171.228 76.2041 -4.80159 4.43636e-006 -5.0348e-005 -0.596773 -1.52763 -57.054 1.0731 -3.98429e-006 -1.802e-007 -0.633856 16.1588 70.8781 -21.8541 -8.13649 25.2327 3.47296 
53.2147 79.4832 3.83479 -0.332854 26.6305 6.69636 -0.316322 0.644804 -0.290412 -0.63257 5.29384 -0.537201 -0.627287 6.93884 -0.527283 2.26384 -10.5064 -1.55131 -4.29954 -1.45617 -1.9334 67.6851 -5.08837 -3.69267 114.73 37.6069 -14.1376 -9.82194e-006 2.61409e-006 -4.12326e-006 16.7654 26.8768 -5.21448 -2.09709e-006 -1.88005e-006 -3.00612 8.02889 -4.95086 0.697449 -60.7259 -1.34885 1.04811 -119.643 34.4358 15.5416 -3.4381e-006 3.55406e-006 -9.77131e-007 -16.1682 26.3475 4.51002 6.30897e-006 1.91131e-006 3.0048 -8.02888 -4.95085 -0.697448 138.744 72.691 34.7109 180 -1.52584e-005 179.588 177.392 57.5605 178.775 -4.11128e-006 -4.01492e-006 0.350181 -14.78 71.0906 21.9163 8.13659 25.2341 -3.48487 -171.383 75.7726 -4.62151 4.43636e-006 -5.0348e-005 -0.598211 -1.55746 -56.756 1.0463 -3.98429e-006 -1.802e-007 -0.630055 16.2008 70.8807 -21.8599 -8.13649 25.2327 3.47296 
53.2195 79.6456 3.9641 -0.332098 26.4962 6.68434 -0.314884 0.629524 -0.287257 -0.630446 5.26326 -0.531126 -0.625227 6.90826 -0.521233 2.36649 -10.5517 -1.54693 -4.37255 -1.36296 -1.9288 67.7089 -5.08454 -3.69204 114.883 37.7661 -13.8252 -9.82194e-006 2.61409e-006 -4.12326e-006 16.4926 26.0869 -4.98719 -2.09709e-006 -1.88005e-006 -3.00612 8.02889 -4.95086 0.697449 -60.8386 -1.33277 1.05075 -119.716 34.6149 15.2642 -3.4381e-006 3.55406e-006 -9.77131e-007 -15.9104 25.5204 4.28374 6.30897e-006 1.91131e-006 3.0048 -8.02888 -4.95085 -0.697448 139.6 72.338 33.8768 180 -1.52584e-005 179.584 177.262 57.2597 178.863 -4.11128e-006 -4.01492e-006 0.348548 -14.8626 71.093 21.9258 8.13659 25.2341 -3.48488 -171.528 75.3414 -4.45059 4.43635e-006 -5.0348e-005 -0.599656 -1.58604 -56.4587 1.02044 -3.98429e-006 -1.802e-007 -0.626316 16.243 70.8831 -21.8656 -8.13649 25.2327 3.47296 
53.2046 79.8245 4.09537 -0.331515 26.3616 6.67265 -0.313498 0.614062 -0.284116 -0.628332 5.23231 -0.525014 -0.623177 6.87732 -0.515145 2.46622 -10.5946 -1.54269 -4.44054 -1.26785 -1.9238 67.7313 -5.07913 -3.69051 115.032 37.919 -13.5117 -9.82194e-006 2.61409e-006 -4.12326e-006 16.2213 25.3082 -4.76746 -2.09709e-006 -1.88005e-006 -3.00612 8.02889 -4.95086 0.697449 -60.9509 -1.31669 1.05338 -119.788 34.7925 14.9854 -3.4381e-006 3.55406e-006 -9.77131e-007 -15.6497 24.7009 4.06433 6.30897e-006 1.91131e-006 3.0048 -8.02888 -4.95085 -0.697448 140.429 71.9838 33.0658 180 -1.52584e-005 179.58 177.141 56.96 178.945 -4.11128e-006 -4.01492e-006 0.346812 -14.9431 71.0961 21.9357 8.13659 25.2342 -3.48489 -171.664 74.9109 -4.28855 4.43636e-006 -5.0348e-005 -0.601097 -1.61333 -56.1627 0.995534 -3.98429e-006 -1.802e-007 -0.622647 16.2857 70.8856 -21.8714 -8.13649 25.2327 3.47296 
53.2122 79.985 4.22457 -0.331176 26.2267 6.66124 -0.312166 0.598396 -0.280983 -0.626197 5.20096 -0.518845 -0.621107 6.84596 -0.509001 2.56225 -10.6345 -1.53849 -4.50286 -1.1708 -1.91826 67.752 -5.07207 -3.68803 115.175 38.0654 -13.1977 -9.82194e-006 2.61409e-006 -4.12326e-006 15.9533 24.5417 -4.55624 -2.09709e-006 -1.88005e-006 -3.00612 8.02889 -4.95086 0.697449 -61.0627 -1.30018 1.05572 -119.86 34.9677 14.7041 -3.4381e-006 3.55406e-006 -9.77131e-007 -15.3855 23.8913 3.85247 6.30897e-006 1.91131e-006 3.0048 -8.02888 -4.95085 -0.697448 141.236 71.6292 32.2737 180 -1.52584e-005 179.576 177.029 56.6621 179.021 -4.11128e-006 -4.01492e-006 0.344953 -15.021 71.1005 21.9465 8.13659 25.2342 -3.48489 -171.792 74.4813 -4.13511 4.43636e-006 -5.0348e-005 -0.602525 -1.63932 -55.8685 0.971586 -3.98429e-006 -1.802e-007 -0.619057 16.3291 70.8886 -21.8777 -8.13649 25.2327 3.47296 
